<?xml version="1.0" standalone="no"?>
<!DOCTYPE svg PUBLIC "-//W3C//DTD SVG 1.1//EN"
"http://www.w3.org/Graphics/SVG/1.1/DTD/svg11.dtd">

<svg width="564" height="651" view_box="0 0 564 651"
xmlns="http://www.w3.org/2000/svg"
xmlns:link="http://www.w3.org/1999/xlink">\n\n<desc>Généré par Mocodo 2.3.7 le Mon, 22 Aug 2022 07:34:51</desc>

<rect id="frame" x="0" y="0" width="564" height="651" fill="#f7f7f7" stroke="none" stroke-width="0"/>

<!-- Association DESSINE -->
<line x1="175" y1="262" x2="59" y2="262" stroke="#e08214" stroke-width="2"/>
<text x="105" y="279.0" fill="#542788" font-family="Verdana" font-size="12">0,N</text>
<line x1="59" y1="68" x2="59" y2="262" stroke="#e08214" stroke-width="2"/>
<text x="64.0" y="119" fill="#542788" font-family="Verdana" font-size="12">1,1</text>
<g id="association-DESSINE">
	<path d="M 80 237 a 14 14 90 0 1 14 14 V 262 h -70 V 251 a 14 14 90 0 1 14 -14" fill="#fdb863" stroke="#fdb863" stroke-width="0"/>
	<path d="M 94 262.0 v 11 a 14 14 90 0 1 -14 14 H 38 a 14 14 90 0 1 -14 -14 V 262.0 H 70" fill="#fee0b6" stroke="#fee0b6" stroke-width="0"/>
	<rect x="24" y="237" width="70" height="50" fill="none" rx="14" stroke="#e08214" stroke-width="2"/>
	<line x1="24" y1="262" x2="94" y2="262" stroke="#e08214" stroke-width="1"/>
	<text x="31" y="254.7" fill="#000000" font-family="Verdana" font-size="12">DESSINE</text>
</g>

<!-- Association RECOIT -->
<line x1="175" y1="262" x2="283" y2="262" stroke="#e08214" stroke-width="2"/>
<text x="223" y="279.0" fill="#542788" font-family="Verdana" font-size="12">0,N</text>
<line x1="388" y1="262" x2="283" y2="262" stroke="#e08214" stroke-width="2"/>
<text x="320" y="279.0" fill="#542788" font-family="Verdana" font-size="12">1,1</text>
<g id="association-RECOIT">
	<path d="M 300 237 a 14 14 90 0 1 14 14 V 262 h -62 V 251 a 14 14 90 0 1 14 -14" fill="#fdb863" stroke="#fdb863" stroke-width="0"/>
	<path d="M 314 262.0 v 11 a 14 14 90 0 1 -14 14 H 266 a 14 14 90 0 1 -14 -14 V 262.0 H 62" fill="#fee0b6" stroke="#fee0b6" stroke-width="0"/>
	<rect x="252" y="237" width="62" height="50" fill="none" rx="14" stroke="#e08214" stroke-width="2"/>
	<line x1="252" y1="262" x2="314" y2="262" stroke="#e08214" stroke-width="1"/>
	<text x="259" y="254.7" fill="#000000" font-family="Verdana" font-size="12">RECOIT</text>
</g>

<!-- Association PREVOIT -->
<line x1="175" y1="262" x2="175" y2="68" stroke="#e08214" stroke-width="2"/>
<text x="180.0" y="144" fill="#542788" font-family="Verdana" font-size="12">0,N</text>
<line x1="283" y1="68" x2="175" y2="68" stroke="#e08214" stroke-width="2"/>
<text x="215" y="85.0" fill="#542788" font-family="Verdana" font-size="12">0,1</text>
<g id="association-PREVOIT">
	<path d="M 195 43 a 14 14 90 0 1 14 14 V 68 h -68 V 57 a 14 14 90 0 1 14 -14" fill="#fdb863" stroke="#fdb863" stroke-width="0"/>
	<path d="M 209 68.0 v 11 a 14 14 90 0 1 -14 14 H 155 a 14 14 90 0 1 -14 -14 V 68.0 H 68" fill="#fee0b6" stroke="#fee0b6" stroke-width="0"/>
	<rect x="141" y="43" width="68" height="50" fill="none" rx="14" stroke="#e08214" stroke-width="2"/>
	<line x1="141" y1="68" x2="209" y2="68" stroke="#e08214" stroke-width="1"/>
	<text x="148" y="60.7" fill="#000000" font-family="Verdana" font-size="12">PREVOIT</text>
</g>

<!-- Association COMMENTE -->
<line x1="388" y1="262" x2="505" y2="262" stroke="#e08214" stroke-width="2"/>
<text x="435" y="279.0" fill="#542788" font-family="Verdana" font-size="12">0,N</text>
<line x1="505" y1="68" x2="505" y2="262" stroke="#e08214" stroke-width="2"/>
<text x="510.0" y="127" fill="#542788" font-family="Verdana" font-size="12">1,1</text>
<g id="association-COMMENTE">
	<path d="M 534 237 a 14 14 90 0 1 14 14 V 262 h -86 V 251 a 14 14 90 0 1 14 -14" fill="#fdb863" stroke="#fdb863" stroke-width="0"/>
	<path d="M 548 262.0 v 11 a 14 14 90 0 1 -14 14 H 476 a 14 14 90 0 1 -14 -14 V 262.0 H 86" fill="#fee0b6" stroke="#fee0b6" stroke-width="0"/>
	<rect x="462" y="237" width="86" height="50" fill="none" rx="14" stroke="#e08214" stroke-width="2"/>
	<line x1="462" y1="262" x2="548" y2="262" stroke="#e08214" stroke-width="1"/>
	<text x="469" y="254.7" fill="#000000" font-family="Verdana" font-size="12">COMMENTE</text>
</g>

<!-- Association FIXE -->
<line x1="283" y1="68" x2="388" y2="68" stroke="#e08214" stroke-width="2"/>
<text x="330" y="85.0" fill="#542788" font-family="Verdana" font-size="12">0,1</text>
<line x1="388" y1="262" x2="388" y2="68" stroke="#e08214" stroke-width="2"/>
<text x="393.0" y="186" fill="#542788" font-family="Verdana" font-size="12">0,N</text>
<g id="association-FIXE">
	<path d="M 396 43 a 14 14 90 0 1 14 14 V 68 h -44 V 57 a 14 14 90 0 1 14 -14" fill="#fdb863" stroke="#fdb863" stroke-width="0"/>
	<path d="M 410 68.0 v 11 a 14 14 90 0 1 -14 14 H 380 a 14 14 90 0 1 -14 -14 V 68.0 H 44" fill="#fee0b6" stroke="#fee0b6" stroke-width="0"/>
	<rect x="366" y="43" width="44" height="50" fill="none" rx="14" stroke="#e08214" stroke-width="2"/>
	<line x1="366" y1="68" x2="410" y2="68" stroke="#e08214" stroke-width="1"/>
	<text x="373" y="60.7" fill="#000000" font-family="Verdana" font-size="12">FIXE</text>
</g>

<!-- Association CREE -->
<line x1="388" y1="557" x2="388" y2="422" stroke="#e08214" stroke-width="2"/>
<text x="393.0" y="464" fill="#542788" font-family="Verdana" font-size="12">0,N</text>
<line x1="388" y1="262" x2="388" y2="422" stroke="#e08214" stroke-width="2"/>
<text x="393.0" y="347" fill="#542788" font-family="Verdana" font-size="12">1,1</text>
<g id="association-CREE">
	<path d="M 398 397 a 14 14 90 0 1 14 14 V 422 h -48 V 411 a 14 14 90 0 1 14 -14" fill="#fdb863" stroke="#fdb863" stroke-width="0"/>
	<path d="M 412 422.0 v 11 a 14 14 90 0 1 -14 14 H 378 a 14 14 90 0 1 -14 -14 V 422.0 H 48" fill="#fee0b6" stroke="#fee0b6" stroke-width="0"/>
	<rect x="364" y="397" width="48" height="50" fill="none" rx="14" stroke="#e08214" stroke-width="2"/>
	<line x1="364" y1="422" x2="412" y2="422" stroke="#e08214" stroke-width="1"/>
	<text x="371" y="414.7" fill="#000000" font-family="Verdana" font-size="12">CREE</text>
</g>

<!-- Association CATEGORISE -->
<line x1="175" y1="262" x2="175" y2="422" stroke="#e08214" stroke-width="2"/>
<text x="180.0" y="389" fill="#542788" font-family="Verdana" font-size="12">0,N</text>
<line x1="175" y1="557" x2="175" y2="422" stroke="#e08214" stroke-width="2"/>
<text x="180.0" y="515" fill="#542788" font-family="Verdana" font-size="12">0,N</text>
<g id="association-CATEGORISE">
	<path d="M 209 397 a 14 14 90 0 1 14 14 V 422 h -96 V 411 a 14 14 90 0 1 14 -14" fill="#fdb863" stroke="#fdb863" stroke-width="0"/>
	<path d="M 223 422.0 v 11 a 14 14 90 0 1 -14 14 H 141 a 14 14 90 0 1 -14 -14 V 422.0 H 96" fill="#fee0b6" stroke="#fee0b6" stroke-width="0"/>
	<rect x="127" y="397" width="96" height="50" fill="none" rx="14" stroke="#e08214" stroke-width="2"/>
	<line x1="127" y1="422" x2="223" y2="422" stroke="#e08214" stroke-width="1"/>
	<text x="134" y="414.7" fill="#000000" font-family="Verdana" font-size="12">CATEGORISE</text>
</g>

<!-- Entity RDV -->
<g id="entity-RDV">
	<g id="frame-RDV">
		<rect x="241" y="9" width="84" height="25" fill="#b2abd2" stroke="#b2abd2" stroke-width="0"/>
		<rect x="241" y="34.0" width="84" height="93" fill="#d8daeb" stroke="#d8daeb" stroke-width="0"/>
		<rect x="241" y="9" width="84" height="118" fill="none" stroke="#8073ac" stroke-width="2"/>
		<line x1="241" y1="34" x2="325" y2="34" stroke="#8073ac" stroke-width="1"/>
	</g>
	<text x="269" y="26.7" fill="#000000" font-family="Verdana" font-size="12">RDV</text>
	<text x="246" y="51.7" fill="#000000" font-family="Verdana" font-size="12">code_rdv</text>
	<line x1="246" y1="54" x2="303" y2="54" stroke="#000000" stroke-width="1"/>
	<text x="246" y="68.8" fill="#000000" font-family="Verdana" font-size="12">titre</text>
	<text x="246" y="85.8" fill="#000000" font-family="Verdana" font-size="12">note</text>
	<text x="246" y="102.8" fill="#000000" font-family="Verdana" font-size="12">heure début</text>
	<text x="246" y="119.8" fill="#000000" font-family="Verdana" font-size="12">heure fin</text>
</g>

<!-- Entity PRO -->
<g id="entity-PRO">
	<g id="frame-PRO">
		<rect x="132" y="152" width="86" height="25" fill="#b2abd2" stroke="#b2abd2" stroke-width="0"/>
		<rect x="132" y="177.0" width="86" height="195" fill="#d8daeb" stroke="#d8daeb" stroke-width="0"/>
		<rect x="132" y="152" width="86" height="220" fill="none" stroke="#8073ac" stroke-width="2"/>
		<line x1="132" y1="177" x2="218" y2="177" stroke="#8073ac" stroke-width="1"/>
	</g>
	<text x="162" y="169.7" fill="#000000" font-family="Verdana" font-size="12">PRO</text>
	<text x="137" y="194.7" fill="#000000" font-family="Verdana" font-size="12">code_pro</text>
	<line x1="137" y1="197" x2="194" y2="197" stroke="#000000" stroke-width="1"/>
	<text x="137" y="211.7" fill="#000000" font-family="Verdana" font-size="12">nom studio</text>
	<text x="137" y="228.7" fill="#000000" font-family="Verdana" font-size="12">ville</text>
	<text x="137" y="245.7" fill="#000000" font-family="Verdana" font-size="12">mail</text>
	<text x="137" y="262.8" fill="#000000" font-family="Verdana" font-size="12">mdp</text>
	<text x="137" y="279.8" fill="#000000" font-family="Verdana" font-size="12">photo profil</text>
	<text x="137" y="296.8" fill="#000000" font-family="Verdana" font-size="12">description</text>
	<text x="137" y="313.8" fill="#000000" font-family="Verdana" font-size="12">instagram</text>
	<text x="137" y="330.8" fill="#000000" font-family="Verdana" font-size="12">couleur</text>
	<text x="137" y="347.8" fill="#000000" font-family="Verdana" font-size="12">noir et blanc</text>
	<text x="137" y="364.8" fill="#000000" font-family="Verdana" font-size="12">role</text>
</g>

<!-- Entity PROJET -->
<g id="entity-PROJET">
	<g id="frame-PROJET">
		<rect x="346" y="194" width="84" height="25" fill="#b2abd2" stroke="#b2abd2" stroke-width="0"/>
		<rect x="346" y="219.0" width="84" height="111" fill="#d8daeb" stroke="#d8daeb" stroke-width="0"/>
		<rect x="346" y="194" width="84" height="136" fill="none" stroke="#8073ac" stroke-width="2"/>
		<line x1="346" y1="219" x2="430" y2="219" stroke="#8073ac" stroke-width="1"/>
	</g>
	<text x="365" y="211.7" fill="#000000" font-family="Verdana" font-size="12">PROJET</text>
	<text x="351" y="236.7" fill="#000000" font-family="Verdana" font-size="12">code_projet</text>
	<line x1="351" y1="239" x2="424" y2="239" stroke="#000000" stroke-width="1"/>
	<text x="351" y="253.7" fill="#000000" font-family="Verdana" font-size="12">titre</text>
	<text x="351" y="270.8" fill="#000000" font-family="Verdana" font-size="12">description</text>
	<text x="351" y="287.8" fill="#000000" font-family="Verdana" font-size="12">statut</text>
	<text x="351" y="304.8" fill="#000000" font-family="Verdana" font-size="12">couleur</text>
	<text x="351" y="321.8" fill="#000000" font-family="Verdana" font-size="12">zone</text>
</g>

<!-- Entity MESSAGE -->
<g id="entity-MESSAGE">
	<g id="frame-MESSAGE">
		<rect x="455" y="26" width="100" height="25" fill="#b2abd2" stroke="#b2abd2" stroke-width="0"/>
		<rect x="455" y="51.0" width="100" height="59" fill="#d8daeb" stroke="#d8daeb" stroke-width="0"/>
		<rect x="455" y="26" width="100" height="84" fill="none" stroke="#8073ac" stroke-width="2"/>
		<line x1="455" y1="51" x2="555" y2="51" stroke="#8073ac" stroke-width="1"/>
	</g>
	<text x="475" y="43.7" fill="#000000" font-family="Verdana" font-size="12">MESSAGE</text>
	<text x="460" y="68.8" fill="#000000" font-family="Verdana" font-size="12">code_message</text>
	<line x1="460" y1="71" x2="550" y2="71" stroke="#000000" stroke-width="1"/>
	<text x="460" y="85.8" fill="#000000" font-family="Verdana" font-size="12">contenu</text>
	<text x="460" y="102.8" fill="#000000" font-family="Verdana" font-size="12">heure</text>
</g>

<!-- Entity STYLE PRO -->
<g id="entity-STYLE PRO">
	<g id="frame-STYLE PRO">
		<rect x="136" y="523" width="78" height="25" fill="#b2abd2" stroke="#b2abd2" stroke-width="0"/>
		<rect x="136" y="548.0" width="78" height="43" fill="#d8daeb" stroke="#d8daeb" stroke-width="0"/>
		<rect x="136" y="523" width="78" height="68" fill="none" stroke="#8073ac" stroke-width="2"/>
		<line x1="136" y1="548" x2="214" y2="548" stroke="#8073ac" stroke-width="1"/>
	</g>
	<text x="141" y="540.7" fill="#000000" font-family="Verdana" font-size="12">STYLE PRO</text>
	<text x="141" y="565.8" fill="#000000" font-family="Verdana" font-size="12">code_style</text>
	<line x1="141" y1="568" x2="206" y2="568" stroke="#000000" stroke-width="1"/>
	<text x="141" y="582.8" fill="#000000" font-family="Verdana" font-size="12">nom</text>
</g>

<!-- Entity TATOUAGE -->
<g id="entity-TATOUAGE">
	<g id="frame-TATOUAGE">
		<rect x="9" y="34" width="100" height="25" fill="#b2abd2" stroke="#b2abd2" stroke-width="0"/>
		<rect x="9" y="59.0" width="100" height="43" fill="#d8daeb" stroke="#d8daeb" stroke-width="0"/>
		<rect x="9" y="34" width="100" height="68" fill="none" stroke="#8073ac" stroke-width="2"/>
		<line x1="9" y1="59" x2="109" y2="59" stroke="#8073ac" stroke-width="1"/>
	</g>
	<text x="25" y="51.7" fill="#000000" font-family="Verdana" font-size="12">TATOUAGE</text>
	<text x="14" y="76.8" fill="#000000" font-family="Verdana" font-size="12">code_tatouage</text>
	<line x1="14" y1="79" x2="104" y2="79" stroke="#000000" stroke-width="1"/>
	<text x="14" y="93.8" fill="#000000" font-family="Verdana" font-size="12">chemin_acces</text>
</g>

<!-- Entity PARTICULIER -->
<g id="entity-PARTICULIER">
	<g id="frame-PARTICULIER">
		<rect x="328" y="472" width="120" height="25" fill="#b2abd2" stroke="#b2abd2" stroke-width="0"/>
		<rect x="328" y="497.0" width="120" height="145" fill="#d8daeb" stroke="#d8daeb" stroke-width="0"/>
		<rect x="328" y="472" width="120" height="170" fill="none" stroke="#8073ac" stroke-width="2"/>
		<line x1="328" y1="497" x2="448" y2="497" stroke="#8073ac" stroke-width="1"/>
	</g>
	<text x="347" y="489.7" fill="#000000" font-family="Verdana" font-size="12">PARTICULIER</text>
	<text x="333" y="514.7" fill="#000000" font-family="Verdana" font-size="12">code_particulier</text>
	<line x1="333" y1="517" x2="430" y2="517" stroke="#000000" stroke-width="1"/>
	<text x="333" y="531.7" fill="#000000" font-family="Verdana" font-size="12">mail</text>
	<text x="333" y="548.7" fill="#000000" font-family="Verdana" font-size="12">nom</text>
	<text x="333" y="565.8" fill="#000000" font-family="Verdana" font-size="12">prénom</text>
	<text x="333" y="582.8" fill="#000000" font-family="Verdana" font-size="12">mdp</text>
	<text x="333" y="599.8" fill="#000000" font-family="Verdana" font-size="12">photo profil</text>
	<text x="333" y="616.8" fill="#000000" font-family="Verdana" font-size="12">date de naissance</text>
	<text x="333" y="633.8" fill="#000000" font-family="Verdana" font-size="12">role</text>
</g>
</svg>